<svg width="104" height="12" viewBox="19 40 104 12" fill="none" xmlns="http://www.w3.org/2000/svg">
<path d="M20.84 50V41.36H23.636C23.704 41.36 23.844 41.362 24.056 41.366C24.268 41.37 24.472 41.384 24.668 41.408C25.364 41.492 25.954 41.734 26.438 42.134C26.922 42.534 27.29 43.042 27.542 43.658C27.794 44.274 27.92 44.948 27.92 45.68C27.92 46.412 27.794 47.086 27.542 47.702C27.29 48.318 26.922 48.826 26.438 49.226C25.954 49.626 25.364 49.868 24.668 49.952C24.472 49.976 24.268 49.99 24.056 49.994C23.844 49.998 23.704 50 23.636 50H20.84ZM22.496 48.464H23.636C23.744 48.464 23.89 48.462 24.074 48.458C24.258 48.45 24.424 48.432 24.572 48.404C24.948 48.328 25.254 48.152 25.49 47.876C25.73 47.6 25.906 47.268 26.018 46.88C26.134 46.492 26.192 46.092 26.192 45.68C26.192 45.248 26.132 44.838 26.012 44.45C25.896 44.062 25.718 43.734 25.478 43.466C25.238 43.198 24.936 43.028 24.572 42.956C24.424 42.924 24.258 42.906 24.074 42.902C23.89 42.898 23.744 42.896 23.636 42.896H22.496V48.464ZM29.3595 50V41.36H34.9995V42.884H30.9915V44.732H34.2795V46.256H30.9915V48.476H34.9995V50H29.3595ZM39.841 50.18C38.977 50.18 38.231 49.992 37.603 49.616C36.979 49.24 36.497 48.714 36.157 48.038C35.821 47.362 35.653 46.576 35.653 45.68C35.653 44.784 35.821 43.998 36.157 43.322C36.497 42.646 36.979 42.12 37.603 41.744C38.231 41.368 38.977 41.18 39.841 41.18C40.833 41.18 41.665 41.426 42.337 41.918C43.013 42.41 43.489 43.076 43.765 43.916L42.121 44.372C41.961 43.848 41.691 43.442 41.311 43.154C40.931 42.862 40.441 42.716 39.841 42.716C39.293 42.716 38.835 42.838 38.467 43.082C38.103 43.326 37.829 43.67 37.645 44.114C37.461 44.558 37.369 45.08 37.369 45.68C37.369 46.28 37.461 46.802 37.645 47.246C37.829 47.69 38.103 48.034 38.467 48.278C38.835 48.522 39.293 48.644 39.841 48.644C40.441 48.644 40.931 48.498 41.311 48.206C41.691 47.914 41.961 47.508 42.121 46.988L43.765 47.444C43.489 48.284 43.013 48.95 42.337 49.442C41.665 49.934 40.833 50.18 39.841 50.18ZM45.0861 50V41.36H48.7341C48.8181 41.36 48.9301 41.364 49.0701 41.372C49.2141 41.376 49.3421 41.388 49.4541 41.408C49.9701 41.488 50.3921 41.658 50.7201 41.918C51.0521 42.178 51.2961 42.506 51.4521 42.902C51.6081 43.294 51.6861 43.732 51.6861 44.216C51.6861 44.94 51.5061 45.56 51.1461 46.076C50.7861 46.588 50.2221 46.904 49.4541 47.024L48.7341 47.072H46.7181V50H45.0861ZM49.9581 50L48.2541 46.484L49.9341 46.16L51.8061 50H49.9581ZM46.7181 45.548H48.6621C48.7461 45.548 48.8381 45.544 48.9381 45.536C49.0381 45.528 49.1301 45.512 49.2141 45.488C49.4341 45.428 49.6041 45.328 49.7241 45.188C49.8441 45.044 49.9261 44.886 49.9701 44.714C50.0181 44.538 50.0421 44.372 50.0421 44.216C50.0421 44.06 50.0181 43.896 49.9701 43.724C49.9261 43.548 49.8441 43.39 49.7241 43.25C49.6041 43.106 49.4341 43.004 49.2141 42.944C49.1301 42.92 49.0381 42.904 48.9381 42.896C48.8381 42.888 48.7461 42.884 48.6621 42.884H46.7181V45.548ZM55.0614 50V46.484L52.1094 41.36H54.0174L55.8894 44.612L57.7614 41.36H59.6694L56.7174 46.484V50H55.0614ZM60.508 50V41.36H64.156C64.24 41.36 64.352 41.364 64.492 41.372C64.636 41.376 64.764 41.388 64.876 41.408C65.392 41.488 65.814 41.658 66.142 41.918C66.474 42.178 66.718 42.506 66.874 42.902C67.03 43.294 67.108 43.732 67.108 44.216C67.108 44.7 67.028 45.14 66.868 45.536C66.712 45.928 66.468 46.254 66.136 46.514C65.808 46.774 65.388 46.944 64.876 47.024C64.764 47.04 64.636 47.052 64.492 47.06C64.348 47.068 64.236 47.072 64.156 47.072H62.14V50H60.508ZM62.14 45.548H64.084C64.168 45.548 64.26 45.544 64.36 45.536C64.46 45.528 64.552 45.512 64.636 45.488C64.856 45.428 65.026 45.328 65.146 45.188C65.266 45.044 65.348 44.886 65.392 44.714C65.44 44.538 65.464 44.372 65.464 44.216C65.464 44.06 65.44 43.896 65.392 43.724C65.348 43.548 65.266 43.39 65.146 43.25C65.026 43.106 64.856 43.004 64.636 42.944C64.552 42.92 64.46 42.904 64.36 42.896C64.26 42.888 64.168 42.884 64.084 42.884H62.14V45.548ZM70.3167 50V42.884H67.5927V41.36H74.6727V42.884H71.9487V50H70.3167Z" fill="#050511"/>
<path d="M81.338 50.18C80.478 50.18 79.752 49.99 79.16 49.61C78.568 49.226 78.12 48.696 77.816 48.02C77.512 47.344 77.36 46.564 77.36 45.68C77.36 44.796 77.512 44.016 77.816 43.34C78.12 42.664 78.568 42.136 79.16 41.756C79.752 41.372 80.478 41.18 81.338 41.18C82.342 41.18 83.162 41.438 83.798 41.954C84.434 42.466 84.87 43.154 85.106 44.018L84.206 44.252C84.022 43.568 83.692 43.026 83.216 42.626C82.74 42.226 82.114 42.026 81.338 42.026C80.662 42.026 80.1 42.18 79.652 42.488C79.204 42.796 78.866 43.226 78.638 43.778C78.414 44.326 78.298 44.96 78.29 45.68C78.286 46.4 78.396 47.034 78.62 47.582C78.848 48.13 79.188 48.56 79.64 48.872C80.096 49.18 80.662 49.334 81.338 49.334C82.114 49.334 82.74 49.134 83.216 48.734C83.692 48.33 84.022 47.788 84.206 47.108L85.106 47.342C84.87 48.206 84.434 48.896 83.798 49.412C83.162 49.924 82.342 50.18 81.338 50.18ZM85.5955 50L88.5715 41.36H89.7415L92.7175 50H91.7995L88.9735 41.852H89.3215L86.5135 50H85.5955ZM86.9215 47.906V47.078H91.3855V47.906H86.9215ZM93.8009 50V41.36H97.1369C97.2209 41.36 97.3149 41.364 97.4189 41.372C97.5269 41.376 97.6349 41.388 97.7429 41.408C98.1949 41.476 98.5769 41.634 98.8889 41.882C99.2049 42.126 99.4429 42.434 99.6029 42.806C99.7669 43.178 99.8489 43.59 99.8489 44.042C99.8489 44.49 99.7669 44.9 99.6029 45.272C99.4389 45.644 99.1989 45.954 98.8829 46.202C98.5709 46.446 98.1909 46.602 97.7429 46.67C97.6349 46.686 97.5269 46.698 97.4189 46.706C97.3149 46.714 97.2209 46.718 97.1369 46.718H94.6829V50H93.8009ZM94.6829 45.878H97.1129C97.1849 45.878 97.2689 45.874 97.3649 45.866C97.4609 45.858 97.5549 45.844 97.6469 45.824C97.9429 45.76 98.1849 45.638 98.3729 45.458C98.5649 45.278 98.7069 45.064 98.7989 44.816C98.8949 44.568 98.9429 44.31 98.9429 44.042C98.9429 43.774 98.8949 43.516 98.7989 43.268C98.7069 43.016 98.5649 42.8 98.3729 42.62C98.1849 42.44 97.9429 42.318 97.6469 42.254C97.5549 42.234 97.4609 42.222 97.3649 42.218C97.2689 42.21 97.1849 42.206 97.1129 42.206H94.6829V45.878ZM101.163 50V41.36H102.045V50H101.163ZM106.142 50V42.206H103.124V41.36H110.042V42.206H107.024V50H106.142ZM110.17 50L113.146 41.36H114.316L117.292 50H116.374L113.548 41.852H113.896L111.088 50H110.17ZM111.496 47.906V47.078H115.96V47.906H111.496ZM118.495 50V41.36H119.377V49.154H123.481V50H118.495Z" fill="#64646C"/>
</svg>
